<?xml version="1.0" encoding="UTF-8"?>
<svg id="Layer_2" data-name="Layer 2" xmlns="http://www.w3.org/2000/svg" viewBox="0 0 698.7 68">
  <defs>
    <style>
      .cls-1 {
        fill: #fafafa;
      }
    </style>
  </defs>
  <g id="Layer_1-2" data-name="Layer 1">
    <g>
      <polygon class="cls-1" points="92.57 .01 67.97 .01 0 67.99 17.45 67.99 73.08 12.35 80.23 12.35 80.23 67.99 92.57 67.99 92.57 .01"/>
      <g>
        <polygon class="cls-1" points="117.23 7.06 117.23 .01 104.89 .01 104.89 19.4 117.23 7.06"/>
        <polygon class="cls-1" points="117.23 12.35 117.23 67.99 104.89 67.99 104.89 24.69 117.23 12.35"/>
      </g>
      <g>
        <polygon class="cls-1" points="303.82 7.06 303.82 .01 291.48 .01 291.48 19.4 303.82 7.06"/>
        <polygon class="cls-1" points="303.82 12.35 303.82 67.99 291.48 67.99 291.48 24.69 303.82 12.35"/>
      </g>
      <g>
        <polygon class="cls-1" points="513.85 7.06 513.85 .01 501.51 .01 501.51 19.4 513.85 7.06"/>
        <polygon class="cls-1" points="513.85 12.35 513.85 67.99 501.51 67.99 501.51 24.69 513.85 12.35"/>
      </g>
      <path class="cls-1" d="M193.95,0h-59.07l-4.45,4.44v59.1l4.45,4.44h59.07l4.46-4.44V4.45L193.95,0ZM186.07,55.65h-43.31V12.34h43.31v43.31Z"/>
      <path class="cls-1" d="M452.13,27.83v12.33h0v-12.33h0Z"/>
      <path class="cls-1" d="M452.13,27.83v12.33h0v-12.33h0Z"/>
      <rect class="cls-1" x="452.13" y="27.83" width="0" height="12.33"/>
      <polygon class="cls-1" points="464.47 0 464.47 12.33 408.83 12.33 408.83 27.83 452.13 27.83 452.13 40.16 408.83 40.16 408.83 55.64 464.47 55.64 464.47 67.98 400.94 67.99 396.49 63.55 396.49 4.45 400.94 0 464.47 0"/>
      <polygon class="cls-1" points="618.85 55.64 674.49 55.64 674.49 67.98 610.96 67.99 606.51 63.55 606.51 4.45 610.96 0 614.06 0 674.49 0 674.49 12.33 618.85 12.33 618.85 55.64"/>
      <rect class="cls-1" x="686.37" y="55.65" width="12.33" height="12.33"/>
      <polygon class="cls-1" points="674.49 0 614.06 0 614.07 0 674.49 0"/>
      <polygon class="cls-1" points="211.16 .01 279.14 .01 279.14 12.34 251.32 12.35 251.32 67.98 238.98 67.99 238.98 12.34 211.16 12.34 211.16 .01"/>
      <polygon class="cls-1" points="384.15 12.34 336.04 55.66 384.15 55.63 384.15 67.99 316.15 67.99 316.15 55.66 365.7 12.34 316.15 12.34 316.15 .01 384.15 .01 384.15 12.34"/>
      <polygon class="cls-1" points="538.52 0 581.83 48.11 581.81 0 594.16 0 594.16 68 581.83 68 538.52 18.45 538.52 68 526.19 68 526.19 0 538.52 0"/>
    </g>
  </g>
</svg>